<svg width="25" height="25" viewBox="0 0 25 25" fill="none" xmlns="http://www.w3.org/2000/svg">
<path d="M4.74213 8.86462C4.74213 7.89355 4.74425 7.26583 4.80643 6.80333C4.86475 6.36959 4.9589 6.23364 5.03502 6.15752C5.11114 6.08139 5.24709 5.98724 5.68083 5.92893C6.14334 5.86675 6.77105 5.86462 7.74213 5.86462H17.7421C18.7132 5.86462 19.3409 5.86675 19.8034 5.92893C20.2372 5.98724 20.3731 6.08139 20.4492 6.15752C20.5254 6.23364 20.6195 6.36959 20.6778 6.80333C20.74 7.26583 20.7421 7.89355 20.7421 8.86462V16.8646H4.74213V8.86462Z" stroke="white" stroke-width="2"/>
<path d="M4.40879 16.8646C3.48832 16.8646 2.74213 17.6108 2.74213 18.5313C2.74213 19.82 3.7868 20.8646 5.07546 20.8646H20.4088C21.6975 20.8646 22.7421 19.82 22.7421 18.5313C22.7421 17.6108 21.9959 16.8646 21.0755 16.8646H4.40879Z" stroke="white" stroke-width="2"/>
</svg>
