<svg width="33" height="33" viewBox="0 0 33 33" fill="none" xmlns="http://www.w3.org/2000/svg">
<path fill-rule="evenodd" clip-rule="evenodd" d="M2.35532 2.28423C3.33163 1.30792 4.91454 1.30792 5.89086 2.28423L30.6396 27.033C31.6159 28.0093 31.6159 29.5922 30.6396 30.5685C29.6633 31.5448 28.0804 31.5448 27.1041 30.5685L2.35532 5.81977C1.37901 4.84346 1.37901 3.26055 2.35532 2.28423Z" fill="white"/>
<path fill-rule="evenodd" clip-rule="evenodd" d="M30.6396 2.28425C31.6159 3.26056 31.6159 4.84347 30.6396 5.81978L5.89085 30.5685C4.91454 31.5448 3.33163 31.5448 2.35532 30.5685C1.37901 29.5922 1.37901 28.0093 2.35532 27.033L27.1041 2.28425C28.0804 1.30794 29.6633 1.30794 30.6396 2.28425Z" fill="white"/>
</svg>
